<?xml version="1.0" encoding="UTF-8"?>
<svg id="Layer_2" data-name="Layer 2" xmlns="http://www.w3.org/2000/svg" viewBox="0 0 181.72 115.03">
  <g id="Layer_1-2" data-name="Layer 1">
    <g>
      <path d="M58.93,50.37c-1.78,2.46-1.22,5.9,1.24,7.68,2.53,1.83,3.04,4.25,2.64,6.28-1.3-2.31-3.8-5.66-7.97-5.61l-.67.05c-2.15.31-4.09,1.52-5.35,3.43-1.87,2.85-1.83,6.38-1.21,8.6,1.15,3.98,3.42,6.6,6.74,7.77,2.23.79,4.5,1,6.68.68,4.47-.65,8.53-3.5,10.91-8.04,3.34-6.38,3.11-16.01-5.31-22.09-2.46-1.78-5.9-1.23-7.68,1.24Z"/>
      <path d="M133.27,50.99c-2.16-2.24-5.19-3.43-8.29-3.5.15-1,.02-2.05-.42-3.05-1.24-2.77-4.5-4.01-7.27-2.77-5.53,2.48-8.37,8.81-8.73,13.99-.37,5.29,1.69,9.88,5.51,12.27,3.25,2.04,7.32,2.78,11.12,2.23,2.34-.34,4.57-1.16,6.46-2.46,2.53-1.65,4.2-4.42,4.58-7.61.4-3.37-.7-6.77-2.95-9.11Z"/>
    </g>
    <path d="M124.62,11.62c17.99-2.6,35.54,7.29,42.67,24.05,4.2,9.87,4.31,20.79.29,30.74-4.01,9.95-11.66,17.75-21.53,21.95-10.1,4.3-26.75,10.09-48.78,13.27-22.01,3.18-39.62,2.34-50.52,1.08-10.66-1.24-20.2-6.55-26.86-14.96-6.66-8.41-9.65-18.91-8.42-29.57,2.1-18.09,16.13-32.54,34.13-35.14,3.42-.49,6.92-.54,10.4-.14,4.06.47,15.09,1.34,29.79-.79,14.7-2.12,25.04-6.08,28.8-7.68,3.22-1.37,6.59-2.32,10.02-2.81h0s0,0,0,0M123.01.52c-4.31.62-8.61,1.81-12.8,3.59-3.36,1.43-12.62,4.96-26.01,6.9h0c-13.39,1.93-23.27,1.17-26.9.74-4.53-.52-8.98-.44-13.29.18C21.5,15.19,3.09,33.22.35,56.88c-3.27,28.19,16.93,53.68,45.12,56.95,11.56,1.34,30.21,2.23,53.41-1.12h.01c23.2-3.35,40.85-9.49,51.56-14.05,26.11-11.11,38.27-41.28,27.16-67.39C168.28,9.36,145.52-2.73,123.01.52h0Z"/>
  </g>
</svg>