<?xml version="1.0" encoding="UTF-8"?>
<svg id="Layer_2" data-name="Layer 2" xmlns="http://www.w3.org/2000/svg" viewBox="0 0 244.55 244.58">
  <defs>
    <style>
      .cls-1 {
        fill: #fff;
      }
    </style>
  </defs>
  <g id="Layer_1-2" data-name="Layer 1">
    <path class="cls-1" d="M226.81,141.01c-21.12-21.13-87.7-21.46-101.99-21.29.18-14.29-.16-80.86-21.29-101.99-23.65-23.65-62.14-23.65-85.8,0s-23.65,62.14,0,85.8c10.71,10.71,33.08,16.07,54.41,18.74-21.33,2.67-43.71,8.03-54.41,18.74-23.65,23.65-23.65,62.14,0,85.8,11.46,11.46,26.69,17.77,42.9,17.77s31.44-6.31,42.9-17.77c10.71-10.71,16.07-33.09,18.74-54.42,2.67,21.33,8.03,43.72,18.74,54.42,11.46,11.46,26.69,17.77,42.9,17.77s31.44-6.31,42.9-17.77c23.65-23.65,23.65-62.14,0-85.8ZM21.28,100C-.43,78.3-.43,42.98,21.28,21.28,32.13,10.42,46.38,5,60.64,5s28.51,5.43,39.36,16.28c19.51,19.51,19.94,84.88,19.81,98.45-2.19-.03-5.65-.04-10.02.03-23.16-.43-72.1-3.33-88.52-19.75ZM100,223.27c-10.51,10.51-24.49,16.3-39.36,16.3s-28.85-5.79-39.36-16.3C-.43,201.57-.43,166.25,21.28,144.55c16.41-16.41,65.27-19.32,88.46-19.76,2.32.04,4.4.05,6.16.05,1.53,0,2.81-.01,3.84-.02-.03,2.21-.04,5.67.03,10.03-.44,23.2-3.35,72.02-19.76,88.43ZM223.27,223.27c-10.51,10.51-24.49,16.3-39.36,16.3s-28.85-5.79-39.36-16.3c-16.41-16.41-19.32-65.27-19.76-88.46.07-4.4.06-7.88.03-10.08,13.58-.13,78.94.3,98.45,19.81,21.7,21.7,21.7,57.02,0,78.73Z"/>
  </g>
</svg>